<svg xmlns="http://www.w3.org/2000/svg" width="28" height="28" viewBox="0 0 28 28">
  <g id="_" data-name="▼" transform="translate(16898.066 22086.59)">
    <g id="area" transform="translate(-16898.066 -22086.59)" fill="rgba(255,0,0,0.3)" stroke="red" stroke-width="2" opacity="0">
      <rect width="28" height="28" stroke="none"/>
      <rect x="1" y="1" width="26" height="26" fill="none"/>
    </g>
    <g id="Group" transform="translate(-16893.371 -22083.816)">
      <path id="Oval_Copy" data-name="Oval Copy" d="M3.479,0A3.479,3.479,0,1,1,0,3.479,3.479,3.479,0,0,1,3.479,0Z" transform="translate(5.828 15.495)" fill="#ee872d"/>
      <path id="Oval_Copy_2" data-name="Oval Copy 2" d="M1.886,0A1.886,1.886,0,1,1,0,1.886,1.886,1.886,0,0,1,1.886,0Z" transform="translate(7.626)" fill="#ffc835"/>
      <path id="빼기_13" data-name="빼기 13" d="M16.627,16.9H1.993A1.963,1.963,0,0,1,.252,15.87a1.953,1.953,0,0,1,.062-2.023l1.043-1.637V7.957A7.963,7.963,0,0,1,9.308,0a8.084,8.084,0,0,1,1.807.206,4.877,4.877,0,0,0,6.1,6.912,7.83,7.83,0,0,1,.045.838v4.253L18.3,13.847A1.991,1.991,0,0,1,16.627,16.9Z" transform="translate(-0.004 2.567)" fill="#ffc835"/>
      <path id="패스_5059" data-name="패스 5059" d="M2.709,0A2.709,2.709,0,1,1,0,2.709,2.709,2.709,0,0,1,2.709,0Z" transform="translate(12.645 2.474)" fill="#ff6060"/>
    </g>
  </g>
</svg>
